<?xml version="1.0" encoding="UTF-8" standalone="no"?>
<svg
   xmlns:dc="http://purl.org/dc/elements/1.1/"
   xmlns:cc="http://creativecommons.org/ns#"
   xmlns:rdf="http://www.w3.org/1999/02/22-rdf-syntax-ns#"
   xmlns:svg="http://www.w3.org/2000/svg"
   xmlns="http://www.w3.org/2000/svg"
   xmlns:sodipodi="http://sodipodi.sourceforge.net/DTD/sodipodi-0.dtd"
   xmlns:inkscape="http://www.inkscape.org/namespaces/inkscape"
   version="1.1"
   x="0px"
   y="0px"
   viewBox="0 0 100 125"
   enable-background="new 0 0 100 100"
   xml:space="preserve"
   id="svg44"
   sodipodi:docname="noun_192872_cc.svg"
   inkscape:version="0.92.1 r15371"><metadata
     id="metadata50"><rdf:RDF><cc:Work
         rdf:about=""><dc:format>image/svg+xml</dc:format><dc:type
           rdf:resource="http://purl.org/dc/dcmitype/StillImage" /></cc:Work></rdf:RDF></metadata><defs
     id="defs48" /><sodipodi:namedview
     pagecolor="#ffffff"
     bordercolor="#666666"
     borderopacity="1"
     objecttolerance="10"
     gridtolerance="10"
     guidetolerance="10"
     inkscape:pageopacity="0"
     inkscape:pageshadow="2"
     inkscape:window-width="1920"
     inkscape:window-height="1057"
     id="namedview46"
     showgrid="false"
     inkscape:zoom="1.888"
     inkscape:cx="50"
     inkscape:cy="62.5"
     inkscape:window-x="-8"
     inkscape:window-y="-8"
     inkscape:window-maximized="1"
     inkscape:current-layer="svg44" /><circle
     cx="27.1"
     cy="29.6"
     r="8.3"
     id="circle2" /><path
     d="M26.6,52.5c2.5,0,4.8,1,6.5,2.6c0.8-0.2,1.7-0.4,2.5-0.5c-3.8-1.2-6.5-4.8-6.5-9c0-2.1,0.7-4,1.9-5.6  c-1.3-0.3-2.6-0.4-4-0.4c-1.4,0-2.9,0.2-4.3,0.5c1.1,1.6,1.8,3.5,1.8,5.5c0,4.2-2.8,7.8-6.5,9c0.8,0.1,1.5,0.3,2.3,0.5  C21.8,53.4,24.1,52.5,26.6,52.5z"
     id="path4" /><circle
     cx="73.2"
     cy="29.6"
     r="8.3"
     id="circle6" /><path
     d="M64.7,54.3v0.4c0.5,0.1,1.1,0.2,1.6,0.3c1.7-1.6,4-2.5,6.4-2.5c2.5,0,4.8,1,6.5,2.6c0.9-0.2,1.8-0.4,2.7-0.6  c-3.8-1.2-6.5-4.8-6.5-9c0-2.1,0.7-4,1.8-5.6c-1.3-0.3-2.7-0.4-4.1-0.4c-1.4,0-2.9,0.2-4.3,0.5c1.1,1.6,1.8,3.5,1.8,5.5  C70.5,49.5,68.1,52.9,64.7,54.3z"
     id="path8" /><circle
     cx="50.6"
     cy="29.6"
     r="8.3"
     id="circle10" /><path
     d="M41.4,54.6c0.8,0.1,1.5,0.3,2.3,0.5c1.7-1.6,4-2.5,6.4-2.5c2.4,0,4.6,0.9,6.3,2.4c0.6-0.1,1.2-0.2,1.8-0.3  c-3.8-1.2-6.5-4.8-6.5-9c0-2.2,0.7-4.2,2-5.8c-1-0.2-2.1-0.2-3.1-0.2c-1.4,0-2.9,0.2-4.3,0.5c1.1,1.6,1.8,3.5,1.8,5.5  C48,49.8,45.2,53.3,41.4,54.6z"
     id="path12" /><path
     d="M23.3,45.6c0-4.6-3.7-8.3-8.3-8.3c-1.4,0-2.6,0.3-3.8,0.9c-1.1,3.7-1.7,7.7-1.7,11.8c0,0.6,0,1.2,0,1.8  c1.5,1.3,3.4,2.1,5.5,2.1C19.6,53.9,23.3,50.2,23.3,45.6z"
     id="path14" /><path
     d="M17.1,61.9c0-2.2,0.8-4.3,2.1-5.9c-1.4-0.3-2.9-0.5-4.3-0.5c-1.7,0-3.4,0.2-5,0.6c1,6.3,3.4,12.2,6.9,17.2  c1.9-1.3,4.3-2.1,6.8-2.4C19.9,69.6,17.1,66.1,17.1,61.9z"
     id="path16" /><circle
     cx="61.1"
     cy="45.6"
     r="8.3"
     id="circle18" /><path
     d="M63.2,61.9c0-2.2,0.8-4.3,2.1-5.9c-1.4-0.3-2.9-0.5-4.3-0.5c-1.2,0-2.4,0.1-3.6,0.3c1.4,1.6,2.2,3.8,2.2,6.1  c0,4.2-2.8,7.8-6.5,9c2.5,0.4,4.8,1.2,6.6,2.3c0.6,0.4,1.2,0.9,1.7,1.4c2.1-2.1,5.2-3.3,8.4-3.8C66,69.6,63.2,66.1,63.2,61.9z"
     id="path20" /><path
     d="M76.5,45.6c0,4.6,3.7,8.3,8.3,8.3c2.2,0,4.2-0.9,5.7-2.3c0-0.5,0-1,0-1.6c0-4-0.6-8-1.7-11.7c-1.2-0.7-2.6-1-4-1  C80.2,37.3,76.5,41,76.5,45.6z"
     id="path22" /><path
     d="M80.1,56.1c1.3,1.6,2,3.6,2,5.8c0,4.2-2.8,7.8-6.5,9c2.5,0.4,4.8,1.2,6.6,2.3c0.2,0.2,0.5,0.3,0.7,0.5  c3.7-5.1,6.2-11,7.2-17.5c-1.7-0.5-3.5-0.7-5.4-0.7C83.1,55.5,81.6,55.7,80.1,56.1z"
     id="path24" /><circle
     cx="38.5"
     cy="45.6"
     r="8.3"
     id="circle26" /><path
     d="M40.7,61.9c0-2.2,0.8-4.3,2.1-5.9c-1.4-0.3-2.9-0.5-4.3-0.5c-1.5,0-3,0.2-4.5,0.5c1.3,1.6,2.1,3.7,2.1,5.9  c0,4.2-2.8,7.8-6.5,9c2.5,0.4,4.8,1.2,6.6,2.3c0.9,0.6,1.6,1.2,2.2,1.9c2.1-2.4,5.4-3.8,8.9-4.3C43.4,69.6,40.7,66.1,40.7,61.9z"
     id="path28" /><circle
     cx="26.6"
     cy="61.9"
     r="8.3"
     id="circle30" /><path
     d="M37.5,76.1c-2.4-3-6.8-4.3-11.1-4.3c-3.2,0-6.5,0.7-8.9,2.4c4.6,6.2,11,11,18.3,13.7v-6C35.8,79.6,36.5,77.7,37.5,76.1z"
     id="path32" /><circle
     cx="72.7"
     cy="61.9"
     r="8.3"
     id="circle34" /><path
     d="M62.1,75.5c1.4,1.8,2.1,3.9,2.1,6.4v6c7.2-2.7,13.4-7.3,18-13.3c-2.5-2-6.1-2.8-9.6-2.8C68.7,71.8,64.6,73,62.1,75.5z"
     id="path36" /><path
     d="M81.8,18.2C73.3,9.7,62,5,50,5S26.7,9.7,18.2,18.2C9.7,26.7,5,38,5,50c0,2.3,0.2,4.6,0.5,6.8c0.1,0.4,0.1,0.8,0.2,1.2  c1.2,6.7,3.9,13,8,18.5c0.2,0.3,0.5,0.7,0.8,1c1.1,1.5,2.4,2.9,3.7,4.2c5,5,11.1,8.7,17.6,10.9c0.4,0.1,0.8,0.2,1.2,0.4  c4.2,1.3,8.5,1.9,13,1.9c4.5,0,8.9-0.6,13-1.9c0.4-0.1,0.8-0.2,1.2-0.4c6.6-2.2,12.6-5.9,17.6-10.9c1.1-1.1,2.1-2.3,3.1-3.5  c0.3-0.3,0.5-0.7,0.8-1c4.3-5.6,7.2-12.1,8.5-19c0.1-0.4,0.2-0.8,0.2-1.3c0.4-2.3,0.5-4.7,0.5-7C95,38,90.3,26.7,81.8,18.2z   M84,74.8c-0.2,0.3-0.5,0.6-0.7,0.9C78.4,82,71.8,86.9,64.2,89.7c-0.4,0.1-0.8,0.3-1.2,0.4c-4.1,1.3-8.5,2.1-13,2.1  c-4.5,0-8.9-0.7-13-2.1c-0.4-0.1-0.8-0.3-1.2-0.4c-7.9-2.8-14.6-7.9-19.5-14.4c-0.2-0.3-0.5-0.6-0.7-0.9C12,69.1,9.5,63.1,8.4,56.6  c-0.1-0.4-0.1-0.8-0.2-1.2c-0.2-1.2-0.3-2.4-0.3-3.6c0-0.6,0-1.2,0-1.8c0,0,0-0.1,0-0.1c0-3.5,0.5-6.9,1.3-10.2  c0.2-0.6,0.3-1.3,0.5-1.9C14.9,20.5,31,7.9,50,7.9c19.1,0,35.2,12.7,40.4,30.1c0.2,0.7,0.4,1.3,0.6,2c0.7,3.1,1.2,6.2,1.2,9.5  c0,0.2,0,0.3,0,0.5c0,0.5,0,1.1,0,1.6c-0.1,1.4-0.2,2.7-0.3,4c-0.1,0.4-0.1,0.8-0.2,1.2C90.5,63.4,87.8,69.6,84,74.8z"
     id="path38" /><text
     xml:space="preserve"
     style="font-style:normal;font-variant:normal;font-weight:normal;font-stretch:normal;font-size:17.33333397px;line-height:1.25;font-family:Carbon;-inkscape-font-specification:Carbon;letter-spacing:0px;word-spacing:0px;fill:#000000;fill-opacity:1;stroke:none"
     x="27.012711"
     y="122.88136"
     id="text4510"><tspan
       sodipodi:role="line"
       id="tspan4508"
       x="27.012711"
       y="122.88136"
       style="font-style:normal;font-variant:normal;font-weight:900;font-stretch:normal;font-size:26.66666603px;font-family:Carbon;-inkscape-font-specification:'Carbon Heavy'">afÍn</tspan></text>
</svg>